<?xml version="1.0" encoding="UTF-8" standalone="no"?>
<!DOCTYPE svg PUBLIC "-//W3C//DTD SVG 1.1//EN"
 "http://www.w3.org/Graphics/SVG/1.1/DTD/svg11.dtd">
<!-- Generated by graphviz version 2.47.0 (20210316.0004)
 -->
<!-- Title: dependencies Pages: 1 -->
<svg width="1399pt" height="284pt"
 viewBox="0.00 0.00 1399.00 284.00" xmlns="http://www.w3.org/2000/svg" xmlns:xlink="http://www.w3.org/1999/xlink">
<g id="graph0" class="graph" transform="scale(1 1) rotate(0) translate(4 280)">
<title>dependencies</title>
<polygon fill="white" stroke="transparent" points="-4,4 -4,-280 1395,-280 1395,4 -4,4"/>
<text text-anchor="start" x="674.51" y="-42.4" font-family="Times-12" font-weight="bold" font-size="14.00">Legend</text>
<polygon fill="#ffffb3" stroke="transparent" points="461.5,-10 461.5,-30 481.5,-30 481.5,-10 461.5,-10"/>
<text text-anchor="start" x="485.13" y="-15.4" font-family="Times-12" font-size="14.00"> &#160;Declarations</text>
<polygon fill="#8dd3c7" stroke="transparent" points="574.5,-10 574.5,-30 594.5,-30 594.5,-10 574.5,-10"/>
<text text-anchor="start" x="598.23" y="-15.4" font-family="Times-12" font-size="14.00"> &#160;Module</text>
<polygon fill="#80b1d3" stroke="transparent" points="660.5,-10 660.5,-30 680.5,-30 680.5,-10 660.5,-10"/>
<text text-anchor="start" x="684.28" y="-15.4" font-family="Times-12" font-size="14.00"> &#160;Bootstrap</text>
<polygon fill="#fdb462" stroke="transparent" points="757.5,-10 757.5,-30 777.5,-30 777.5,-10 757.5,-10"/>
<text text-anchor="start" x="781.17" y="-15.4" font-family="Times-12" font-size="14.00"> &#160;Providers</text>
<polygon fill="#fb8072" stroke="transparent" points="853.5,-10 853.5,-30 873.5,-30 873.5,-10 853.5,-10"/>
<text text-anchor="start" x="877.23" y="-15.4" font-family="Times-12" font-size="14.00"> &#160;Exports</text>
<g id="clust1" class="cluster">
<title>cluster_PagesModule</title>
<polygon fill="none" stroke="black" stroke-dasharray="1,5" points="8,-70 8,-268 1383,-268 1383,-70 8,-70"/>
</g>
<g id="clust2" class="cluster">
<title>cluster_PagesModule_declarations</title>
<polygon fill="none" stroke="black" points="29,-78 29,-130 1360,-130 1360,-78 29,-78"/>
</g>
<g id="clust13" class="cluster">
<title>cluster_PagesModule_exports</title>
<polygon fill="none" stroke="black" points="16,-208 16,-260 1375,-260 1375,-208 16,-208"/>
</g>
<!-- CestaComponent -->
<g id="node1" class="node">
<title>CestaComponent</title>
<polygon fill="#ffffb3" stroke="black" points="1352.43,-122 1239.57,-122 1239.57,-86 1352.43,-86 1352.43,-122"/>
<text text-anchor="middle" x="1296" y="-99.8" font-family="Times,serif" font-size="14.00">CestaComponent</text>
</g>
<!-- PagesModule -->
<g id="node10" class="node">
<title>PagesModule</title>
<polygon fill="#8dd3c7" stroke="black" points="785.21,-187 782.21,-191 761.21,-191 758.21,-187 692.79,-187 692.79,-151 785.21,-151 785.21,-187"/>
<text text-anchor="middle" x="739" y="-164.8" font-family="Times,serif" font-size="14.00">PagesModule</text>
</g>
<!-- CestaComponent&#45;&gt;PagesModule -->
<g id="edge1" class="edge">
<title>CestaComponent&#45;&gt;PagesModule</title>
<path fill="none" stroke="black" d="M1245.41,-122.22C1245.41,-140.83 1245.41,-167 1245.41,-167 1245.41,-167 795.28,-167 795.28,-167"/>
<polygon fill="black" stroke="black" points="795.28,-163.5 785.28,-167 795.28,-170.5 795.28,-163.5"/>
</g>
<!-- ContactaComponent -->
<g id="node2" class="node">
<title>ContactaComponent</title>
<polygon fill="#ffffb3" stroke="black" points="1221.59,-122 1090.41,-122 1090.41,-86 1221.59,-86 1221.59,-122"/>
<text text-anchor="middle" x="1156" y="-99.8" font-family="Times,serif" font-size="14.00">ContactaComponent</text>
</g>
<!-- ContactaComponent&#45;&gt;PagesModule -->
<g id="edge2" class="edge">
<title>ContactaComponent&#45;&gt;PagesModule</title>
<path fill="none" stroke="black" d="M1094.58,-122.02C1094.58,-139.37 1094.58,-163 1094.58,-163 1094.58,-163 795.12,-163 795.12,-163"/>
<polygon fill="black" stroke="black" points="795.12,-159.5 785.12,-163 795.12,-166.5 795.12,-159.5"/>
</g>
<!-- FooterComponent -->
<g id="node3" class="node">
<title>FooterComponent</title>
<polygon fill="#ffffb3" stroke="black" points="1072.88,-122 955.12,-122 955.12,-86 1072.88,-86 1072.88,-122"/>
<text text-anchor="middle" x="1014" y="-99.8" font-family="Times,serif" font-size="14.00">FooterComponent</text>
</g>
<!-- FooterComponent&#45;&gt;PagesModule -->
<g id="edge3" class="edge">
<title>FooterComponent&#45;&gt;PagesModule</title>
<path fill="none" stroke="black" d="M1035.06,-122.01C1035.06,-138.05 1035.06,-159 1035.06,-159 1035.06,-159 795.26,-159 795.26,-159"/>
<polygon fill="black" stroke="black" points="795.26,-155.5 785.26,-159 795.26,-162.5 795.26,-155.5"/>
</g>
<!-- HeaderComponent -->
<g id="node4" class="node">
<title>HeaderComponent</title>
<polygon fill="#ffffb3" stroke="black" points="936.74,-122 815.26,-122 815.26,-86 936.74,-86 936.74,-122"/>
<text text-anchor="middle" x="876" y="-99.8" font-family="Times,serif" font-size="14.00">HeaderComponent</text>
</g>
<!-- HeaderComponent&#45;&gt;PagesModule -->
<g id="edge4" class="edge">
<title>HeaderComponent&#45;&gt;PagesModule</title>
<path fill="none" stroke="black" d="M896.71,-122.12C896.71,-136.78 896.71,-155 896.71,-155 896.71,-155 795.46,-155 795.46,-155"/>
<polygon fill="black" stroke="black" points="795.46,-151.5 785.46,-155 795.46,-158.5 795.46,-151.5"/>
</g>
<!-- HomeComponent -->
<g id="node5" class="node">
<title>HomeComponent</title>
<polygon fill="#ffffb3" stroke="black" points="796.55,-122 681.45,-122 681.45,-86 796.55,-86 796.55,-122"/>
<text text-anchor="middle" x="739" y="-99.8" font-family="Times,serif" font-size="14.00">HomeComponent</text>
</g>
<!-- HomeComponent&#45;&gt;PagesModule -->
<g id="edge5" class="edge">
<title>HomeComponent&#45;&gt;PagesModule</title>
<path fill="none" stroke="black" d="M739,-122.11C739,-122.11 739,-140.99 739,-140.99"/>
<polygon fill="black" stroke="black" points="735.5,-140.99 739,-150.99 742.5,-140.99 735.5,-140.99"/>
</g>
<!-- NosotrosComponent -->
<g id="node6" class="node">
<title>NosotrosComponent</title>
<polygon fill="#ffffb3" stroke="black" points="662.88,-122 531.12,-122 531.12,-86 662.88,-86 662.88,-122"/>
<text text-anchor="middle" x="597" y="-99.8" font-family="Times,serif" font-size="14.00">NosotrosComponent</text>
</g>
<!-- NosotrosComponent&#45;&gt;PagesModule -->
<g id="edge6" class="edge">
<title>NosotrosComponent&#45;&gt;PagesModule</title>
<path fill="none" stroke="black" d="M618.15,-122.12C618.15,-136.78 618.15,-155 618.15,-155 618.15,-155 682.62,-155 682.62,-155"/>
<polygon fill="black" stroke="black" points="682.62,-158.5 692.62,-155 682.62,-151.5 682.62,-158.5"/>
</g>
<!-- NovedadesComponent -->
<g id="node7" class="node">
<title>NovedadesComponent</title>
<polygon fill="#ffffb3" stroke="black" points="512.53,-122 369.47,-122 369.47,-86 512.53,-86 512.53,-122"/>
<text text-anchor="middle" x="441" y="-99.8" font-family="Times,serif" font-size="14.00">NovedadesComponent</text>
</g>
<!-- NovedadesComponent&#45;&gt;PagesModule -->
<g id="edge7" class="edge">
<title>NovedadesComponent&#45;&gt;PagesModule</title>
<path fill="none" stroke="black" d="M462.09,-122.01C462.09,-138.05 462.09,-159 462.09,-159 462.09,-159 682.65,-159 682.65,-159"/>
<polygon fill="black" stroke="black" points="682.65,-162.5 692.65,-159 682.65,-155.5 682.65,-162.5"/>
</g>
<!-- ProductoDetalleComponent -->
<g id="node8" class="node">
<title>ProductoDetalleComponent</title>
<polygon fill="#ffffb3" stroke="black" points="351.3,-122 178.7,-122 178.7,-86 351.3,-86 351.3,-122"/>
<text text-anchor="middle" x="265" y="-99.8" font-family="Times,serif" font-size="14.00">ProductoDetalleComponent</text>
</g>
<!-- ProductoDetalleComponent&#45;&gt;PagesModule -->
<g id="edge8" class="edge">
<title>ProductoDetalleComponent&#45;&gt;PagesModule</title>
<path fill="none" stroke="black" d="M347.53,-122.02C347.53,-139.37 347.53,-163 347.53,-163 347.53,-163 682.56,-163 682.56,-163"/>
<polygon fill="black" stroke="black" points="682.56,-166.5 692.56,-163 682.56,-159.5 682.56,-166.5"/>
</g>
<!-- RelojesComponent -->
<g id="node9" class="node">
<title>RelojesComponent</title>
<polygon fill="#ffffb3" stroke="black" points="160.82,-122 37.18,-122 37.18,-86 160.82,-86 160.82,-122"/>
<text text-anchor="middle" x="99" y="-99.8" font-family="Times,serif" font-size="14.00">RelojesComponent</text>
</g>
<!-- RelojesComponent&#45;&gt;PagesModule -->
<g id="edge9" class="edge">
<title>RelojesComponent&#45;&gt;PagesModule</title>
<path fill="none" stroke="black" d="M155.54,-122.22C155.54,-140.83 155.54,-167 155.54,-167 155.54,-167 682.73,-167 682.73,-167"/>
<polygon fill="black" stroke="black" points="682.73,-170.5 692.73,-167 682.73,-163.5 682.73,-170.5"/>
</g>
<!-- CestaComponent  -->
<g id="node11" class="node">
<title>CestaComponent </title>
<polygon fill="#fb8072" stroke="black" points="1366.93,-252 1251.07,-252 1251.07,-216 1366.93,-216 1366.93,-252"/>
<text text-anchor="middle" x="1309" y="-229.8" font-family="Times,serif" font-size="14.00">CestaComponent </text>
</g>
<!-- PagesModule&#45;&gt;CestaComponent  -->
<g id="edge10" class="edge">
<title>PagesModule&#45;&gt;CestaComponent </title>
<path fill="none" stroke="black" stroke-dasharray="5,2" d="M785.52,-171C920.32,-171 1301.62,-171 1301.62,-171 1301.62,-171 1301.62,-205.78 1301.62,-205.78"/>
<polygon fill="black" stroke="black" points="1298.13,-205.78 1301.62,-215.78 1305.13,-205.78 1298.13,-205.78"/>
</g>
<!-- ContactaComponent  -->
<g id="node12" class="node">
<title>ContactaComponent </title>
<polygon fill="#fb8072" stroke="black" points="1233.09,-252 1098.91,-252 1098.91,-216 1233.09,-216 1233.09,-252"/>
<text text-anchor="middle" x="1166" y="-229.8" font-family="Times,serif" font-size="14.00">ContactaComponent </text>
</g>
<!-- PagesModule&#45;&gt;ContactaComponent  -->
<g id="edge11" class="edge">
<title>PagesModule&#45;&gt;ContactaComponent </title>
<path fill="none" stroke="black" stroke-dasharray="5,2" d="M785.27,-175C894.67,-175 1160.12,-175 1160.12,-175 1160.12,-175 1160.12,-205.98 1160.12,-205.98"/>
<polygon fill="black" stroke="black" points="1156.63,-205.98 1160.12,-215.98 1163.63,-205.98 1156.63,-205.98"/>
</g>
<!-- FooterComponent  -->
<g id="node13" class="node">
<title>FooterComponent </title>
<polygon fill="#fb8072" stroke="black" points="1080.88,-252 959.12,-252 959.12,-216 1080.88,-216 1080.88,-252"/>
<text text-anchor="middle" x="1020" y="-229.8" font-family="Times,serif" font-size="14.00">FooterComponent </text>
</g>
<!-- PagesModule&#45;&gt;FooterComponent  -->
<g id="edge12" class="edge">
<title>PagesModule&#45;&gt;FooterComponent </title>
<path fill="none" stroke="black" stroke-dasharray="5,2" d="M785.16,-179C859.42,-179 997.19,-179 997.19,-179 997.19,-179 997.19,-205.99 997.19,-205.99"/>
<polygon fill="black" stroke="black" points="993.69,-205.99 997.19,-215.99 1000.69,-205.99 993.69,-205.99"/>
</g>
<!-- HeaderComponent  -->
<g id="node14" class="node">
<title>HeaderComponent </title>
<polygon fill="#fb8072" stroke="black" points="941.74,-252 816.26,-252 816.26,-216 941.74,-216 941.74,-252"/>
<text text-anchor="middle" x="879" y="-229.8" font-family="Times,serif" font-size="14.00">HeaderComponent </text>
</g>
<!-- PagesModule&#45;&gt;HeaderComponent  -->
<g id="edge13" class="edge">
<title>PagesModule&#45;&gt;HeaderComponent </title>
<path fill="none" stroke="black" stroke-dasharray="5,2" d="M785.12,-183C818.05,-183 856.54,-183 856.54,-183 856.54,-183 856.54,-205.88 856.54,-205.88"/>
<polygon fill="black" stroke="black" points="853.04,-205.88 856.54,-215.88 860.04,-205.88 853.04,-205.88"/>
</g>
<!-- HomeComponent  -->
<g id="node15" class="node">
<title>HomeComponent </title>
<polygon fill="#fb8072" stroke="black" points="798.54,-252 679.46,-252 679.46,-216 798.54,-216 798.54,-252"/>
<text text-anchor="middle" x="739" y="-229.8" font-family="Times,serif" font-size="14.00">HomeComponent </text>
</g>
<!-- PagesModule&#45;&gt;HomeComponent  -->
<g id="edge14" class="edge">
<title>PagesModule&#45;&gt;HomeComponent </title>
<path fill="none" stroke="black" stroke-dasharray="5,2" d="M739,-187.11C739,-187.11 739,-205.99 739,-205.99"/>
<polygon fill="black" stroke="black" points="735.5,-205.99 739,-215.99 742.5,-205.99 735.5,-205.99"/>
</g>
<!-- NosotrosComponent  -->
<g id="node16" class="node">
<title>NosotrosComponent </title>
<polygon fill="#fb8072" stroke="black" points="661.88,-252 526.12,-252 526.12,-216 661.88,-216 661.88,-252"/>
<text text-anchor="middle" x="594" y="-229.8" font-family="Times,serif" font-size="14.00">NosotrosComponent </text>
</g>
<!-- PagesModule&#45;&gt;NosotrosComponent  -->
<g id="edge15" class="edge">
<title>PagesModule&#45;&gt;NosotrosComponent </title>
<path fill="none" stroke="black" stroke-dasharray="5,2" d="M692.77,-183C644.14,-183 574.6,-183 574.6,-183 574.6,-183 574.6,-205.88 574.6,-205.88"/>
<polygon fill="black" stroke="black" points="571.1,-205.88 574.6,-215.88 578.1,-205.88 571.1,-205.88"/>
</g>
<!-- NovedadesComponent  -->
<g id="node17" class="node">
<title>NovedadesComponent </title>
<polygon fill="#fb8072" stroke="black" points="508.53,-252 361.47,-252 361.47,-216 508.53,-216 508.53,-252"/>
<text text-anchor="middle" x="435" y="-229.8" font-family="Times,serif" font-size="14.00">NovedadesComponent </text>
</g>
<!-- PagesModule&#45;&gt;NovedadesComponent  -->
<g id="edge16" class="edge">
<title>PagesModule&#45;&gt;NovedadesComponent </title>
<path fill="none" stroke="black" stroke-dasharray="5,2" d="M692.67,-179C603.27,-179 415.66,-179 415.66,-179 415.66,-179 415.66,-205.99 415.66,-205.99"/>
<polygon fill="black" stroke="black" points="412.16,-205.99 415.66,-215.99 419.16,-205.99 412.16,-205.99"/>
</g>
<!-- ProductoDetalleComponent  -->
<g id="node18" class="node">
<title>ProductoDetalleComponent </title>
<polygon fill="#fb8072" stroke="black" points="343.8,-252 168.2,-252 168.2,-216 343.8,-216 343.8,-252"/>
<text text-anchor="middle" x="256" y="-229.8" font-family="Times,serif" font-size="14.00">ProductoDetalleComponent </text>
</g>
<!-- PagesModule&#45;&gt;ProductoDetalleComponent  -->
<g id="edge17" class="edge">
<title>PagesModule&#45;&gt;ProductoDetalleComponent </title>
<path fill="none" stroke="black" stroke-dasharray="5,2" d="M692.77,-175C572.9,-175 261.38,-175 261.38,-175 261.38,-175 261.38,-205.98 261.38,-205.98"/>
<polygon fill="black" stroke="black" points="257.88,-205.98 261.38,-215.98 264.88,-205.98 257.88,-205.98"/>
</g>
<!-- RelojesComponent  -->
<g id="node19" class="node">
<title>RelojesComponent </title>
<polygon fill="#fb8072" stroke="black" points="150.32,-252 23.68,-252 23.68,-216 150.32,-216 150.32,-252"/>
<text text-anchor="middle" x="87" y="-229.8" font-family="Times,serif" font-size="14.00">RelojesComponent </text>
</g>
<!-- PagesModule&#45;&gt;RelojesComponent  -->
<g id="edge18" class="edge">
<title>PagesModule&#45;&gt;RelojesComponent </title>
<path fill="none" stroke="black" stroke-dasharray="5,2" d="M692.86,-171C545.21,-171 93.88,-171 93.88,-171 93.88,-171 93.88,-205.78 93.88,-205.78"/>
<polygon fill="black" stroke="black" points="90.38,-205.78 93.88,-215.78 97.38,-205.78 90.38,-205.78"/>
</g>
</g>
</svg>
